<svg width="50" height="32" viewBox="0 0 50 32" xmlns="http://www.w3.org/2000/svg">
    <g fill="none" fill-rule="evenodd">
        <rect width="50" height="32" rx="6" fill="#FFF"/>
        <rect x=".5" y=".5" width="49" height="31" rx="6" stroke="#BBBBBE"/>
        <path d="M14 5v22h22v-3.476h-3.036l-1.122-1.313-1.166 1.313h-8.624v-6.989h-2.846l3.557-8.052h3.462l.836 1.826V8.483h4.297l.719 1.914.703-1.914H36V5H14zm19.514 4.62-1.13 2.977-.3.806-.308-.806-1.137-2.977h-2.486v5.866h1.496v-3.821l-.007-.769.293.769 1.43 3.821h1.423l1.438-3.821.278-.762v4.583H36V9.62h-2.486zm-9.944 0-2.596 5.866h1.701l.455-1.129h2.845l.455 1.129h1.723L25.572 9.62H23.57zm.689 1.987.294-.734.293.734.608 1.481h-1.803l.608-1.481zm9.373 4.935-1.768 1.899-1.76-1.899h-6.849v5.845h4.898v-1.269h-3.402v-1.019h3.337v-1.261h-3.337v-1.027h3.402v-1.269l2.736 2.934-2.736 2.911h1.892l1.782-1.907 1.775 1.907h1.943l-2.742-2.933 2.742-2.912h-1.913zm.711 2.904L36 21.133v-3.351l-1.657 1.664z" fill="#006FCF"/>
    </g>
</svg>
