<svg viewBox="0 0 110 28" xmlns="http://www.w3.org/2000/svg" xmlns:xlink="http://www.w3.org/1999/xlink"><defs><path id="a" d="M0 0h10.797v13.183H0z"/></defs><g fill="none" fill-rule="evenodd"><path d="M56.058.196H45.712a.26.26 0 0 0-.261.261v2.936a.26.26 0 0 0 .26.261h3.445a.13.13 0 0 1 .13.13v8.962c0 .144.117.261.26.261h2.676a.261.261 0 0 0 .26-.261V3.784a.13.13 0 0 1 .132-.13h3.444a.261.261 0 0 0 .26-.261V.457a.261.261 0 0 0-.26-.261M69.33 9.699c-1.69 0-3.058-1.287-3.058-3.111 0-1.827 1.369-3.111 3.058-3.111 1.689 0 3.058 1.284 3.058 3.11 0 1.825-1.37 3.112-3.058 3.112m4.514-7.934C72.683.629 71.08.004 69.33.004c-1.75 0-3.353.625-4.514 1.76-1.236 1.21-1.89 2.88-1.89 4.828 0 1.95.654 3.62 1.89 4.829 1.16 1.134 2.764 1.759 4.514 1.759 3.71 0 6.403-2.771 6.403-6.588 0-1.948-.653-3.617-1.89-4.827M28.231.33v5.928a.13.13 0 0 1-.229.086L22.717.245A.13.13 0 0 0 22.618.2h-1.963a.26.26 0 0 0-.26.26v12.286c0 .144.116.261.26.261h2.805a.13.13 0 0 0 .131-.13V6.982c0-.12.15-.176.23-.085l5.254 6.065a.13.13 0 0 0 .1.045h1.992a.261.261 0 0 0 .261-.261V.46a.26.26 0 0 0-.26-.26H28.36a.13.13 0 0 0-.13.13M84.586.33v5.928a.13.13 0 0 1-.23.086L79.073.245a.13.13 0 0 0-.1-.045H77.01a.26.26 0 0 0-.261.26v12.286c0 .144.117.261.26.261h2.806a.13.13 0 0 0 .13-.13V6.982c0-.12.15-.176.23-.085l5.255 6.065a.13.13 0 0 0 .099.045h1.993a.261.261 0 0 0 .26-.261V.46a.26.26 0 0 0-.26-.26h-2.806a.13.13 0 0 0-.13.13M107.916 14.987H97.57a.26.26 0 0 0-.26.261v2.936a.26.26 0 0 0 .26.261h3.444a.13.13 0 0 1 .13.13v8.962c0 .144.117.261.261.261h2.675a.261.261 0 0 0 .261-.26v-8.963a.13.13 0 0 1 .131-.13h3.444a.261.261 0 0 0 .261-.26v-2.937a.261.261 0 0 0-.26-.26M10.607 14.987H.261a.26.26 0 0 0-.261.261v3.066a.13.13 0 0 0 .13.131h3.575a.13.13 0 0 1 .13.13v8.962c0 .144.117.261.261.261h2.675a.261.261 0 0 0 .261-.261v-8.962a.13.13 0 0 1 .131-.13h3.574a.13.13 0 0 0 .131-.131v-3.066a.261.261 0 0 0-.261-.261M32.8 18.193v-2.941a.261.261 0 0 0-.26-.261h-8.313a.261.261 0 0 0-.26.26v12.286a.26.26 0 0 0 .26.26h8.312a.26.26 0 0 0 .261-.26v-2.94a.261.261 0 0 0-.26-.26h-5.246a.13.13 0 0 1-.13-.13V23a.13.13 0 0 1 .13-.131h4.34a.261.261 0 0 0 .26-.261v-2.413a.26.26 0 0 0-.26-.261h-4.34a.13.13 0 0 1-.13-.131v-1.22a.13.13 0 0 1 .13-.13h5.245a.261.261 0 0 0 .261-.261M19.537 15.115v4.376a.13.13 0 0 1-.13.13h-4.301a.13.13 0 0 1-.13-.13v-4.37a.13.13 0 0 0-.13-.13H12.04a.26.26 0 0 0-.261.26v12.286c0 .144.117.26.26.26h2.807a.13.13 0 0 0 .13-.13V23.21a.13.13 0 0 1 .13-.13h4.3a.13.13 0 0 1 .13.13v4.453c0 .072.059.13.13.13h2.807a.261.261 0 0 0 .26-.261V15.245a.26.26 0 0 0-.26-.26h-2.806a.13.13 0 0 0-.13.13M46.63 15.121v4.37a.13.13 0 0 1-.13.13h-4.301a.13.13 0 0 1-.13-.13v-4.37a.13.13 0 0 0-.13-.13h-2.806a.26.26 0 0 0-.261.26v12.286c0 .144.117.261.26.261h2.807a.13.13 0 0 0 .13-.13v-4.459a.13.13 0 0 1 .13-.13h4.3a.13.13 0 0 1 .13.13v4.459c0 .072.059.13.13.13h2.807a.261.261 0 0 0 .26-.261V15.251a.26.26 0 0 0-.26-.26H46.76a.13.13 0 0 0-.13.13M76.588 15.115v4.376a.13.13 0 0 1-.13.13h-4.3a.13.13 0 0 1-.13-.13v-4.37a.13.13 0 0 0-.13-.13H69.09a.26.26 0 0 0-.26.26v12.286c0 .144.116.26.26.26h2.806a.13.13 0 0 0 .13-.13V23.21a.13.13 0 0 1 .13-.13h4.301a.13.13 0 0 1 .13.13v4.453c0 .072.058.13.13.13h2.806a.261.261 0 0 0 .261-.261V15.245a.26.26 0 0 0-.26-.26h-2.807a.13.13 0 0 0-.13.13M54.248 27.798h-2.935a.261.261 0 0 1-.262-.261v-12.28c0-.144.117-.261.261-.261l2.937-.005c.143 0 .26.117.26.261v12.285a.261.261 0 0 1-.26.261" fill="#7066E0"/><g transform="translate(85.9 14.817)"><mask id="b" fill="#fff"><use xlink:href="#a"/></mask><path d="M10.203 6.648c-2.277-2.95-6.625-.74-6.597-2.502.013-.777 2.493-1.531 4.753.245a.261.261 0 0 0 .354-.028l1.896-2.064a.263.263 0 0 0-.014-.37C9.123.565 7.233.086 6.223.02c-1.727-.113-3.27.286-4.406 1.187C.58 2.186-.138 4.154.63 6.04 1.32 7.74 3.316 8.145 4.851 8.22c1.101.055 2.492-.137 2.641.559.206.964-1.093 1.056-1.319 1.08-1.354.148-2.63-.385-3.647-1.32a.261.261 0 0 0-.356.003L.081 10.52a.261.261 0 0 0-.01.368 7.402 7.402 0 0 0 1.97 1.488c1.548.803 3.662.98 5.084.646 3.487-.823 3.642-3.592 3.664-4.035.041-.82-.08-1.684-.586-2.34" fill="#7066E0" mask="url(#b)"/></g><path d="M64.403 23.857a.13.13 0 0 1-.035.09c-.523.557-1.334.738-2.412.738-1.717 0-3.109-1.325-3.109-3.203 0-1.88 1.392-3.203 3.11-3.203 1.167 0 2.184.612 2.715 1.596a.26.26 0 0 0 .34.11l2.567-1.229a.262.262 0 0 0 .126-.342 6.037 6.037 0 0 0-1.286-1.847c-1.16-1.136-2.764-1.76-4.514-1.76-1.75 0-3.353.624-4.514 1.76-1.236 1.21-1.889 2.88-1.889 4.827 0 1.95.653 3.62 1.89 4.83 1.16 1.133 2.762 1.758 4.513 1.758a6.66 6.66 0 0 0 2.724-.562.261.261 0 0 1 .318.088l.127.18a.26.26 0 0 0 .213.11h2.052a.261.261 0 0 0 .261-.26v-6.25a.261.261 0 0 0-.26-.26h-2.676a.261.261 0 0 0-.26.26v2.57zM109.16 27.792h-2.87a.26.26 0 0 1-.26-.261v-3.012a.26.26 0 0 1 .26-.26h2.87a.26.26 0 0 1 .261.26v3.012a.261.261 0 0 1-.26.26M38.749 7.713c-1.928 0-3.815-.334-5.61-.994a1.113 1.113 0 0 1 .768-2.091c1.548.57 3.177.857 4.842.857 1.665 0 3.294-.288 4.84-.857a1.113 1.113 0 0 1 .769 2.091c-1.794.66-3.681.994-5.61.994" fill="#7066E0"/><path d="M35.003 4.216c.776.227 1.57.383 2.377.465.382.039.6-.425.33-.696l-2.06-2.058a1.114 1.114 0 1 0-1.575 1.575l.404.404c.146.145.326.252.524.31M38.992 4.227a.51.51 0 0 0 .87-.361V1.135c0-.643-.535-1.17-1.177-1.133a1.113 1.113 0 0 0-1.05 1.112v1.545c0 .135.053.265.15.36l1.207 1.208zM42.603 4.183a.817.817 0 0 0 .342-.205l.475-.478a1.114 1.114 0 1 0-1.575-1.575l-1.008 1.01a.82.82 0 0 0-.239.578v.631c0 .254.23.447.48.403a13.104 13.104 0 0 0 1.525-.364M41.475 8.231c-.507.082-1.019.141-1.534.176a.41.41 0 0 0-.263.697l2.145 2.145a1.11 1.11 0 0 0 1.575 0 1.114 1.114 0 0 0 0-1.575L42.184 8.46a.818.818 0 0 0-.709-.229M38.5 8.967a.508.508 0 0 0-.866.359v2.72c0 .612.487 1.123 1.1 1.13a1.114 1.114 0 0 0 1.128-1.113V10.54a.51.51 0 0 0-.149-.36L38.5 8.967zM36.022 8.231a.818.818 0 0 0-.71.23l-1.226 1.226a1.114 1.114 0 1 0 1.575 1.575l.998-.999a.818.818 0 0 0 .24-.578v-.973a.408.408 0 0 0-.355-.405 18.747 18.747 0 0 1-.522-.076" fill="#7066E0"/></g></svg>